<svg width="32" height="32" fill="none" xmlns="http://www.w3.org/2000/svg">
  <path clip-rule="evenodd" d="M27.831 30.447a.222.222 0 0 1-.02.016c-.253.177-.587.194-.9.205l-3.296.11c-3.826.128-7.654.257-11.483.213-1.912-.021-8.409.036-8.45-.383-.368-3.76-.57-8.324-.584-12.127-.007-1.832-.11-4.316-.097-6.25.014-1.985.038-3.969.061-5.952.016-1.282.031-2.568.23-3.835.165-1.048.088-.961.99-1.01 1.205-.066 3.474-.232 4.691-.284 3.29-.14 6.588-.157 9.88-.148 2.443.007 4.88-.012 7.32.039.266.005.535.011.788.087.253.075.492.23.602.46.074.155.084.33.09.5.043 1.354-.002 2.708-.006 4.066-.006 1.811.098 3.62.173 5.43.23 5.552.046 11.1.078 16.648.003.507.267 1.92-.067 2.215z" stroke="#1F2573" stroke-width="1.2" stroke-linecap="round" stroke-linejoin="round"/>
  <g clip-path="url(#a)">
    <path fill-rule="evenodd" clip-rule="evenodd" d="M7.973 8.184c-.12.06-.232.163-.338.253-.136.115-.346.23-.448.376-.083.117-.049.346-.068.5-.024.191-.03.385-.042.576-.062 1.12-.159 2.248-.165 3.37-.001.202.006.405-.004.605-.01.175-.05.355.146.401.159.038.326.003.49.012.197.01.391.05.59.061 1.212.072 2.416.038 3.632.003.503-.014 1.02-.048 1.52-.017.23.014.315-.078.455-.264.12-.16.442-.666.53-.723" fill="#001581"/>
    <path d="M7.973 8.184c-.12.06-.232.163-.338.253-.136.115-.346.23-.448.376-.083.117-.049.346-.068.5-.024.191-.03.385-.042.576-.062 1.12-.159 2.248-.165 3.37-.001.202.006.405-.004.605-.01.175-.05.355.146.401.159.038.326.003.49.012.197.01.391.05.59.061 1.212.072 2.416.038 3.632.003.503-.014 1.02-.048 1.52-.017.23.014.315-.078.455-.264.12-.16.442-.666.53-.723" stroke="#1F2573" stroke-width=".536" stroke-linecap="round" stroke-linejoin="round"/>
    <path fill-rule="evenodd" clip-rule="evenodd" d="M7.967 8.149c-.14.098-.092.901-.118 1.2-.047.54-.094 1.084-.118 1.626-.02.463-.01.918-.032 1.381-.012.276-.15.776.067 1.009.304.326 1.575.099 2.026.05a15.48 15.48 0 0 1 2.285-.055c.504.021 2.182.001 2.182.001s.067-5.193-.132-5.248c-.444-.124-1.184-.023-1.623.012-.777.062-1.578-.038-2.356.012-.792.051-2.181.012-2.181.012z" fill="#F48C9B"/>
    <path clip-rule="evenodd" d="M7.967 8.149c-.14.098-.092.901-.118 1.2-.047.54-.094 1.084-.118 1.626-.02.463-.01.918-.032 1.381-.012.276-.15.776.067 1.009.304.326 1.575.099 2.026.05a15.48 15.48 0 0 1 2.285-.055c.504.021 2.182.001 2.182.001s.067-5.193-.132-5.248c-.444-.124-1.184-.023-1.623.012-.777.062-1.578-.038-2.356.012-.792.051-2.181.012-2.181.012z" stroke="#F48C9B" stroke-width=".536" stroke-linecap="round" stroke-linejoin="round"/>
    <path d="M11.127 9.52c-.756-.229-1.483.345-1.497 1.134-.008.469.157 1.003.636 1.215.332.147.838.037 1.095-.345" stroke="#fff" stroke-linecap="round" stroke-linejoin="round"/>
  </g>
  <g clip-path="url(#b)">
    <path fill-rule="evenodd" clip-rule="evenodd" d="M7.973 15.387c-.12.06-.232.163-.338.253-.136.115-.346.23-.448.376-.083.118-.049.346-.068.501-.024.19-.03.384-.042.575-.062 1.12-.159 2.248-.165 3.37-.001.202.006.405-.004.605-.01.175-.05.355.146.401.159.038.326.003.49.012.197.01.391.05.59.061 1.212.072 2.416.038 3.632.003.503-.014 1.02-.048 1.52-.017.23.014.315-.078.455-.264.12-.16.442-.665.53-.723" fill="#001581"/>
    <path d="M7.973 15.387c-.12.06-.232.163-.338.253-.136.115-.346.23-.448.376-.083.118-.049.346-.068.501-.024.19-.03.384-.042.575-.062 1.12-.159 2.248-.165 3.37-.001.202.006.405-.004.605-.01.175-.05.355.146.401.159.038.326.003.49.012.197.01.391.05.59.061 1.212.072 2.416.038 3.632.003.503-.014 1.02-.048 1.52-.017.23.014.315-.078.455-.264.12-.16.442-.665.53-.723" stroke="#1F2573" stroke-width=".536" stroke-linecap="round" stroke-linejoin="round"/>
    <path fill-rule="evenodd" clip-rule="evenodd" d="M7.967 15.352c-.14.098-.092.901-.118 1.2-.047.54-.094 1.084-.118 1.626-.02.463-.01.918-.032 1.381-.012.276-.15.776.067 1.009.304.326 1.575.099 2.026.05a15.48 15.48 0 0 1 2.285-.054c.504.02 2.182 0 2.182 0s.067-5.193-.132-5.248c-.444-.124-1.184-.023-1.623.012-.777.062-1.578-.038-2.356.012-.792.051-2.181.012-2.181.012z" fill="#1EDBCF"/>
    <path d="M10.272 17.982s.625-.93.984-1.186c.14.386-.163 2.264-.097 2.355" stroke="#fff" stroke-linecap="round" stroke-linejoin="round"/>
    <path clip-rule="evenodd" d="M7.967 15.352c-.14.098-.092.901-.118 1.2-.047.54-.094 1.084-.118 1.626-.02.463-.01.918-.032 1.381-.012.276-.15.776.067 1.009.304.326 1.575.099 2.026.05a15.48 15.48 0 0 1 2.285-.054c.504.02 2.182 0 2.182 0s.067-5.193-.132-5.248c-.444-.124-1.184-.023-1.623.012-.777.062-1.578-.038-2.356.012-.792.051-2.181.012-2.181.012z" stroke="#1EDBCF" stroke-width=".536" stroke-linecap="round" stroke-linejoin="round"/>
  </g>
  <g clip-path="url(#c)">
    <path fill-rule="evenodd" clip-rule="evenodd" d="M7.973 22.756c-.12.06-.232.163-.338.253-.136.115-.346.231-.448.376-.083.118-.049.347-.068.501-.024.19-.03.384-.042.575-.062 1.12-.159 2.248-.165 3.37-.001.202.006.405-.004.605-.01.175-.05.355.146.402.159.037.326.002.49.011.197.01.391.05.59.062 1.212.071 2.416.037 3.632.003.503-.015 1.02-.049 1.52-.018.23.014.315-.078.455-.264.12-.16.442-.665.53-.723" fill="#001581"/>
    <path d="M7.973 22.756c-.12.06-.232.163-.338.253-.136.115-.346.231-.448.376-.083.118-.049.347-.068.501-.024.19-.03.384-.042.575-.062 1.12-.159 2.248-.165 3.37-.001.202.006.405-.004.605-.01.175-.05.355.146.402.159.037.326.002.49.011.197.01.391.05.59.062 1.212.071 2.416.037 3.632.003.503-.015 1.02-.049 1.52-.018.23.014.315-.078.455-.264.12-.16.442-.665.53-.723" stroke="#1F2573" stroke-width=".536" stroke-linecap="round" stroke-linejoin="round"/>
    <path fill-rule="evenodd" clip-rule="evenodd" d="M7.967 22.72c-.14.1-.092.902-.118 1.201-.047.54-.094 1.085-.118 1.626-.02.463-.01.918-.032 1.381-.012.277-.15.776.067 1.009.304.326 1.575.099 2.026.051a15.465 15.465 0 0 1 2.285-.055c.504.02 2.182 0 2.182 0s.067-5.193-.132-5.248c-.444-.124-1.184-.023-1.623.012-.777.062-1.578-.038-2.356.012-.792.051-2.181.012-2.181.012z" fill="#1EDBCF"/>
    <path d="M9.852 24.749c.247-.399 1.05-.976 1.404-.415.513.811-.9 1.682-1.057 2.336.662-.035 1.498-.279 2.08-.344" stroke="#fff" stroke-linecap="round" stroke-linejoin="round"/>
    <path clip-rule="evenodd" d="M7.967 22.72c-.14.1-.092.902-.118 1.201-.047.54-.094 1.085-.118 1.626-.02.463-.01.918-.032 1.381-.012.277-.15.776.067 1.009.304.326 1.575.099 2.026.051a15.465 15.465 0 0 1 2.285-.055c.504.02 2.182 0 2.182 0s.067-5.193-.132-5.248c-.444-.124-1.184-.023-1.623.012-.777.062-1.578-.038-2.356.012-.792.051-2.181.012-2.181.012z" stroke="#1EDBCF" stroke-width=".536" stroke-linecap="round" stroke-linejoin="round"/>
  </g>
  <g clip-path="url(#d)">
    <path fill-rule="evenodd" clip-rule="evenodd" d="M17.772 8.184c-.12.06-.232.163-.339.253-.135.115-.346.23-.447.376-.083.117-.05.346-.069.5-.023.191-.03.385-.04.576-.064 1.12-.16 2.248-.166 3.37-.002.202.006.405-.005.605-.009.175-.05.355.147.401.158.038.326.003.49.012.197.01.39.05.59.061 1.211.072 2.416.038 3.632.003.503-.014 1.02-.048 1.52-.017.23.014.315-.078.454-.264.12-.16.443-.666.53-.723" fill="#001581"/>
    <path d="M17.772 8.184c-.12.06-.232.163-.339.253-.135.115-.346.23-.447.376-.083.117-.05.346-.069.5-.023.191-.03.385-.04.576-.064 1.12-.16 2.248-.166 3.37-.002.202.006.405-.005.605-.009.175-.05.355.147.401.158.038.326.003.49.012.197.01.39.05.59.061 1.211.072 2.416.038 3.632.003.503-.014 1.02-.048 1.52-.017.23.014.315-.078.454-.264.12-.16.443-.666.53-.723" stroke="#1F2573" stroke-width=".536" stroke-linecap="round" stroke-linejoin="round"/>
    <path fill-rule="evenodd" clip-rule="evenodd" d="M17.765 8.149c-.139.098-.091.901-.117 1.2-.047.54-.094 1.084-.118 1.626-.02.463-.01.918-.032 1.381-.013.276-.15.776.067 1.009.304.326 1.574.099 2.026.05a15.479 15.479 0 0 1 2.284-.055c.505.021 2.183.001 2.183.001s.067-5.193-.132-5.248c-.444-.124-1.185-.023-1.624.012-.776.062-1.578-.038-2.355.012-.792.051-2.181.012-2.181.012z" fill="#1EDBCF"/>
    <path d="M21.069 9.193c-.195.743-.35 1.963-.323 2.885-.008.066.034-.05.057-.068m-1.471-1.286c.978-.331 2.322-.042 3.264-.413" stroke="#fff" stroke-linecap="round" stroke-linejoin="round"/>
    <path clip-rule="evenodd" d="M17.765 8.149c-.139.098-.091.901-.117 1.2-.047.54-.094 1.084-.118 1.626-.02.463-.01.918-.032 1.381-.013.276-.15.776.067 1.009.304.326 1.574.099 2.026.05a15.479 15.479 0 0 1 2.284-.055c.505.021 2.183.001 2.183.001s.067-5.193-.132-5.248c-.444-.124-1.185-.023-1.624.012-.776.062-1.578-.038-2.355.012-.792.051-2.181.012-2.181.012z" stroke="#1EDBCF" stroke-width=".536" stroke-linecap="round" stroke-linejoin="round"/>
  </g>
  <g clip-path="url(#e)">
    <path fill-rule="evenodd" clip-rule="evenodd" d="M17.772 15.387c-.12.06-.232.163-.339.253-.135.115-.346.23-.447.376-.083.118-.05.346-.069.501-.023.19-.03.384-.04.575-.064 1.12-.16 2.248-.166 3.37-.002.202.006.405-.005.605-.009.175-.05.355.147.401.158.038.326.003.49.012.197.01.39.05.59.061 1.211.072 2.416.038 3.632.003.503-.014 1.02-.048 1.52-.017.23.014.315-.078.454-.264.12-.16.443-.665.53-.723" fill="#001581"/>
    <path d="M17.772 15.387c-.12.06-.232.163-.339.253-.135.115-.346.23-.447.376-.083.118-.05.346-.069.501-.023.19-.03.384-.04.575-.064 1.12-.16 2.248-.166 3.37-.002.202.006.405-.005.605-.009.175-.05.355.147.401.158.038.326.003.49.012.197.01.39.05.59.061 1.211.072 2.416.038 3.632.003.503-.014 1.02-.048 1.52-.017.23.014.315-.078.454-.264.12-.16.443-.665.53-.723" stroke="#1F2573" stroke-width=".536" stroke-linecap="round" stroke-linejoin="round"/>
    <path fill-rule="evenodd" clip-rule="evenodd" d="M17.765 15.352c-.139.098-.091.901-.117 1.2-.047.54-.094 1.084-.118 1.626-.02.463-.01.918-.032 1.381-.013.276-.15.776.067 1.009.304.326 1.574.099 2.026.05a15.479 15.479 0 0 1 2.284-.054c.505.02 2.183 0 2.183 0s.067-5.193-.132-5.248c-.444-.124-1.185-.023-1.624.012-.776.062-1.578-.038-2.355.012-.792.051-2.181.012-2.181.012z" fill="#1EDBCF"/>
    <path d="M19.331 17.972c.457.086.888-.029 1.336-.059.272-.018.706.032.93-.08" stroke="#fff" stroke-linecap="round" stroke-linejoin="round"/>
    <path clip-rule="evenodd" d="M17.765 15.352c-.139.098-.091.901-.117 1.2-.047.54-.094 1.084-.118 1.626-.02.463-.01.918-.032 1.381-.013.276-.15.776.067 1.009.304.326 1.574.099 2.026.05a15.479 15.479 0 0 1 2.284-.054c.505.02 2.183 0 2.183 0s.067-5.193-.132-5.248c-.444-.124-1.185-.023-1.624.012-.776.062-1.578-.038-2.355.012-.792.051-2.181.012-2.181.012z" stroke="#1EDBCF" stroke-width=".536" stroke-linecap="round" stroke-linejoin="round"/>
  </g>
  <g clip-path="url(#f)">
    <path fill-rule="evenodd" clip-rule="evenodd" d="M17.772 22.756c-.12.06-.232.163-.339.253-.135.115-.346.231-.447.376-.083.118-.05.347-.069.501-.023.19-.03.384-.04.575-.064 1.12-.16 2.248-.166 3.37-.002.202.006.405-.005.605-.009.175-.05.355.147.402.158.037.326.002.49.011.197.01.39.05.59.062 1.211.071 2.416.037 3.632.003.503-.015 1.02-.049 1.52-.018.23.014.315-.078.454-.264.12-.16.443-.665.53-.723" fill="#001581"/>
    <path d="M17.772 22.756c-.12.06-.232.163-.339.253-.135.115-.346.231-.447.376-.083.118-.05.347-.069.501-.023.19-.03.384-.04.575-.064 1.12-.16 2.248-.166 3.37-.002.202.006.405-.005.605-.009.175-.05.355.147.402.158.037.326.002.49.011.197.01.39.05.59.062 1.211.071 2.416.037 3.632.003.503-.015 1.02-.049 1.52-.018.23.014.315-.078.454-.264.12-.16.443-.665.53-.723" stroke="#1F2573" stroke-width=".536" stroke-linecap="round" stroke-linejoin="round"/>
    <path fill-rule="evenodd" clip-rule="evenodd" d="M17.765 22.72c-.139.1-.091.902-.117 1.201-.047.54-.094 1.085-.118 1.626-.02.463-.01.918-.032 1.381-.013.277-.15.776.067 1.009.304.326 1.574.099 2.026.051a15.465 15.465 0 0 1 2.284-.055c.505.02 2.183 0 2.183 0s.067-5.193-.132-5.248c-.444-.124-1.185-.023-1.624.012-.776.062-1.578-.038-2.355.012-.792.051-2.181.012-2.181.012z" fill="#1EDBCF"/>
    <path d="M19.37 24.717c.37.013 1.095-.1 1.565-.165.532-.074.953.033 1.461.004m-3.065 1.454c.47.186 1.315-.128 1.828-.154.477-.025.96-.006 1.439-.008" stroke="#fff" stroke-linecap="round" stroke-linejoin="round"/>
    <path clip-rule="evenodd" d="M17.765 22.72c-.139.1-.091.902-.117 1.201-.047.54-.094 1.085-.118 1.626-.02.463-.01.918-.032 1.381-.013.277-.15.776.067 1.009.304.326 1.574.099 2.026.051a15.465 15.465 0 0 1 2.284-.055c.505.02 2.183 0 2.183 0s.067-5.193-.132-5.248c-.444-.124-1.185-.023-1.624.012-.776.062-1.578-.038-2.355.012-.792.051-2.181.012-2.181.012z" stroke="#1EDBCF" stroke-width=".536" stroke-linecap="round" stroke-linejoin="round"/>
  </g>
  <path fill-rule="evenodd" clip-rule="evenodd" d="M23.646 6.268c-.477.125-3.057.04-3.6.05-1.376.03-2.753.044-4.13.053-2.526.017-8.422.109-8.532.058-.053-.025-.018-.256-.016-.312.028-.754-.049-1.526.052-2.275.013-.09-.008-.412.07-.465.053-.036 1.071-.023 1.322-.033 1.81-.076 3.622-.052 5.433-.128.817-.034 4.843-.038 6.037-.035.657.002 1.217-.012 1.874.005.311.009 1.54-.028 1.53.06-.01.086-.014.339-.022.426-.071.762.013 2.588-.018 2.596z" fill="#1F2573"/>
  <defs>
    <clipPath id="a">
      <path fill="#fff" transform="rotate(-16.862 31.954 -13.113)" d="M0 0h8.89v8.07H0z"/>
    </clipPath>
    <clipPath id="b">
      <path fill="#fff" transform="rotate(-16.862 56.252 -9.512)" d="M0 0h8.89v8.07H0z"/>
    </clipPath>
    <clipPath id="c">
      <path fill="#fff" transform="rotate(-16.862 81.11 -5.827)" d="M0 0h8.89v8.07H0z"/>
    </clipPath>
    <clipPath id="d">
      <path fill="#fff" transform="rotate(-16.862 36.853 -46.167)" d="M0 0h8.89v8.07H0z"/>
    </clipPath>
    <clipPath id="e">
      <path fill="#fff" transform="rotate(-16.862 61.151 -42.566)" d="M0 0h8.89v8.07H0z"/>
    </clipPath>
    <clipPath id="f">
      <path fill="#fff" transform="rotate(-16.862 86.01 -38.881)" d="M0 0h8.89v8.07H0z"/>
    </clipPath>
  </defs>
</svg>
