<svg width="32" height="32" fill="none" xmlns="http://www.w3.org/2000/svg">
  <path fill-rule="evenodd" clip-rule="evenodd" d="M5.63 11.733a.185.185 0 0 1-.025-.035c-.07-.133-.025-.555-.023-.715.003-.48.04-1.533.047-2.013.001-.133.004-.273.054-.388.107-.246.533-.188.71-.197.354-.018 5.814-.064 6.524-.05.305.007.17.568.165.83-.01.44-.005 1.453.013 1.89.006.14.013.283-.014.418-.056.281-.219.347-.417.339-.352-.016-6.944.026-7.035-.079zm7.122 2.214a.613.613 0 0 1 .049.158c.164.784.096 2.051.065 2.856 0 .024-.003.052-.019.068-.012.014-.03.016-.048.017-1.141.105-5.554.208-6.699.096-.052-.005-.108-.012-.15-.059-.052-.058-.068-.159-.08-.252-.054-.421-.068-2.618.042-2.827.07-.13.222-.147.353-.15.942-.015 5.265-.01 6.206-.027.086 0 .181.001.245.069a.233.233 0 0 1 .036.05zm-7.118 6.885c.023.379-.042.787.11 1.14.014.034.031.07.06.09.038.027.087.026.132.024.891-.04 6.812-.036 6.961-.304.076-.136.072-.305.065-.462l-.075-1.892c-.005-.115-.02-.25-.114-.31-.053-.032-.12-.031-.18-.03-1.102.039-5.534.076-6.634.114-.083.003-.175.01-.23.076-.04.047-.05.113-.057.176a7.579 7.579 0 0 0-.038 1.378z" fill="#979CD8"/>
  <path clip-rule="evenodd" d="M4.408 30.922s-.25-25.127-.265-25.204c.017-.017 10.335-.194 10.813-.041.46.147.501 12.114.55 12.478.151 1.106.005 12.134-.09 12.686-.051.301-11.008.081-11.008.081z" stroke="#1F2573" stroke-width="1.2" stroke-linecap="round" stroke-linejoin="round"/>
  <path d="M6.768 30.864c-.153-.227.18-5.993.381-6.728.182-.665 1.29-.565 2.03-.51.788.058 1.556.047 2.343.043a.813.813 0 0 1 .81.762c.126 1.811-.074 5.889-.05 6.382" stroke="#1F2573" stroke-linecap="round" stroke-linejoin="round"/>
  <path d="M9.799 23.697c-.068.082-.082.195-.087.302-.056 1.095-.148 4.545-.205 6.872" stroke="#1F2573" stroke-linecap="round" stroke-linejoin="round"/>
  <path fill-rule="evenodd" clip-rule="evenodd" d="M25.877 30.958c.172-.217.116-5.61-.091-6.326-.188-.649-1.403-.572-2.217-.532-.973.047-2.128-.04-3.106-.017a.575.575 0 0 0-.546.51c-.21 1.58-.05 5.758-.087 6.257" fill="#1EDBCF"/>
  <path fill-rule="evenodd" clip-rule="evenodd" d="M27.257 4.674c.003 0 .005-.002.007-.003.634-.312-.692-1.715-.929-1.983a5.412 5.412 0 0 0-2.359-1.565c-1.002-.326-1.966.067-2.917.348-1.099.326-1.899.743-2.839 1.433-.422.31-1.11 1.535-1.076 1.658.102.373 5.08.107 7.588.129l2.27.018a.59.59 0 0 0 .255-.035z" fill="#303AB2"/>
  <path clip-rule="evenodd" d="M25.282 7.532a.575.575 0 0 1 .046.148c.153.73.09 3.908.06 4.658 0 .023-.002.049-.016.064-.012.013-.03.015-.045.016-1.064.097-4.255.194-5.321.09-.049-.005-.1-.012-.14-.056-.048-.053-.064-.148-.075-.235-.05-.392-.063-4.437.04-4.632.064-.121.207-.137.329-.138.877-.015 3.984-.011 4.861-.026.08-.001.169.001.228.064a.2.2 0 0 1 .033.047zm-5.71 12.409c.02.353-.04.733.1 1.062.015.032.03.064.058.084.035.026.08.025.123.023.83-.039 5.426-.034 5.565-.284.07-.127.067-.284.061-.431-.024-.587-.047-4.17-.07-4.758-.005-.108-.019-.234-.107-.289-.05-.03-.11-.03-.169-.028-1.025.035-4.233.07-5.259.106-.077.002-.163.01-.214.07-.037.044-.046.106-.054.164-.052.427-.06 3.853-.034 4.28z" stroke="#1F2573" stroke-linecap="round" stroke-linejoin="round"/>
  <path clip-rule="evenodd" d="M17.803 30.92s-.073-26.295-.089-26.378c.017-.018 9.176-.17 9.646-.002.452.16.294.321.345.715.154 1.197.455 25.34.19 25.62-.24.253-10.092.045-10.092.045z" stroke="#1F2573" stroke-width="1.2" stroke-linecap="round" stroke-linejoin="round"/>
  <path d="M17.714 4.302c1.279-1.617 3.204-2.983 5.238-3.003 2.034-.02 4.105 1.237 4.793 3.193" stroke="#1F2573" stroke-width="1.2" stroke-linecap="round" stroke-linejoin="round"/>
  <path d="M19.773 10.003c1.24-.157 2.494-.134 3.743-.11l1.728.034m-5.684 8.31c1.033.12 2.076.15 3.115.091.306-.017.611-.043.917-.068l1.787-.147M22.557 7.42a131.9 131.9 0 0 0-.146 5.082m.045 2.9c.016 1.923.121 3.744 0 5.663" stroke="#1F2573" stroke-linecap="round" stroke-linejoin="round"/>
  <path fill-rule="evenodd" clip-rule="evenodd" d="M3.09 5.476c.052.072.132.078.205.08 3.547.063 8.036.076 11.584.038.114 0 .482-.01.577-.103.085-.083.258-1.958-.109-2.11-.366-.155-10.164-.03-11.115.057-.242.023-.833-.093-1.038.136-.174.193-.28 1.656-.104 1.902z" fill="#1EDBCF"/>
</svg>
