<svg width="32" height="32" fill="none" xmlns="http://www.w3.org/2000/svg">
  <path fill-rule="evenodd" clip-rule="evenodd" d="M26.927 11.144a.63.63 0 0 1-.248.298c-.527.32-1.835.1-2.437.114-1.052.026-2.104.06-3.156.09l-6.1.172-6.361.18C7.14 12.04 2.98 11.342 3 10.952c.02-.391.185-.755.347-1.106l1.55-3.383C5.72 4.673 6.398 2.15 8.032.989 8.746.481 9.625.325 10.476.202c2.652-.384 6.466-.16 7.778.17 1.717.429 3.115 2.847 4.264 4.256a178.785 178.785 0 0 1 3.968 5.022c.202.268.41.549.487.883.047.2.033.425-.046.61z" fill="#1EDBCF"/>
  <path clip-rule="evenodd" d="M27 29.77s-.155-2.97-.174-5.237c-.024-2.977-.174-13.65-.155-13.771-.022-.026-12.486-.006-12.543.567-.172 1.738-.267 18.126.068 18.53C14.5 30.221 27 29.77 27 29.77z" stroke="#1F2573" stroke-linecap="round" stroke-linejoin="round"/>
  <path d="M26.66 10.746c-.071-.623-6.644-8.358-7.346-9.153-.03-.034-.09-.036-.12-.002-.632.693-4.599 8.157-5.186 9.723-3.104-.01-5.973-.035-9.076-.095" stroke="#1F2573" stroke-linecap="round" stroke-linejoin="round"/>
  <path d="M19.3 1.493c-1.05-.073-9.067-.149-9.728.457-.413.378-.668.875-.915 1.361-1.243 2.45-2.408 4.954-3.725 7.37-.724 1.33-1.312 19.047-.63 19.13 1.754.215 9.876.142 9.876.142" stroke="#1F2573" stroke-linecap="round" stroke-linejoin="round"/>
  <path clip-rule="evenodd" d="M9.818 13.79c-.29-.232-.918-.048-1.249-.048-.439.001-.857-.012-1.296.01-.011.198-.33 3.089-.297 3.09.931.021 1.905.095 2.831.049.026-.495-.018-.998.007-1.494.016-.336.229-1.427.004-1.607zm0 5.354c-.29-.232-.918-.048-1.249-.048-.439 0-.857-.013-1.296.01-.011.198-.33 3.088-.297 3.09.931.021 1.905.095 2.831.048.026-.494-.018-.997.007-1.493.016-.336.229-1.428.004-1.607z" stroke="#1F2573" stroke-linecap="round" stroke-linejoin="round"/>
  <path d="M24.5 17.5c0 2.5-2 6-4 7.5-2-1.5-4.5-4.5-4.5-7 1-2 2.5-2.5 4.5-3 2.5.5 3.5 2 4 2.5z" fill="#1EDBCF" stroke="#1EDBCF"/>
  <path d="M18.53 19.47a.75.75 0 1 0-1.06 1.06l1.06-1.06zm.97 2.03-.53.53a.75.75 0 0 0 1.06 0l-.53-.53zm4.237-2.788a.75.75 0 0 0-.474-1.423l.474 1.423zM20.03 22.03c.561-.56 1.175-1.25 1.916-1.965.352-.34.697-.65 1.018-.893.329-.25.59-.4.773-.46l-.474-1.424c-.416.14-.831.403-1.208.69-.386.294-.778.647-1.15 1.007-.71.685-1.496 1.545-1.935 1.985l1.06 1.06zm-2.56-1.5.75.75 1.06-1.06-.75-.75-1.06 1.06zm.75.75.75.75 1.06-1.06-.75-.75-1.06 1.06z" fill="#1F2573"/>
</svg>
