<svg width="32" height="32" fill="none" xmlns="http://www.w3.org/2000/svg">
  <path fill-rule="evenodd" clip-rule="evenodd" d="M1.395 26.8h10.838V5.724H1.395V26.8z" fill="#303AB2"/>
  <path fill-rule="evenodd" clip-rule="evenodd" d="M17.74 27.221h9.999v-9.225H17.74v9.225z" fill="#1EDBCF"/>
  <path d="M17.697 27.766c.364.44 9.636-.087 10.242.234.652-.432 2.752-2.838 2.955-3.583.29-1.063-.101-6.265-.152-8.378-.002-.088-.106-.133-.174-.077-1.357 1.115-2.444 1.807-4.286 1.816l-6.567.032-1.934.01c-.13 0-.2-.157-.11-.251.68-.717 1.474-1.287 2.343-1.783.047-.02 7.597-.33 9.287-.339M1.487 27.015c.364.44 10.13.307 10.242.234-.021-.018 2.751-2.838 2.954-3.582.29-1.063-.303-20.723-.37-20.667l-10.93.237c-.869.497-1.662 1.067-2.343 1.783-.09.094-.019.252.11.252l1.934-.01c2.19-.01 6.718-.063 8.907-.073l1.07-.934" stroke="#1F2573" stroke-width="1.2" stroke-linecap="round" stroke-linejoin="round"/>
</svg>
