<svg width="32" height="32" fill="none" xmlns="http://www.w3.org/2000/svg">
  <path d="M1 12.348C3.69 9.225 4.114 8.766 4.666 8.4" stroke="#C1C5DB" stroke-linecap="round" stroke-linejoin="round"/>
  <path fill-rule="evenodd" clip-rule="evenodd" d="M10.053 4.157c.89-.645 2.232.877 2.998 1.339 1.094.66 14.197 9.067 16.367 10.114 1.28.618 1.844 2.01 1.467 3.72-.278 1.26-1.212 3.068-1.738 4.242-.93 2.075-2.203 5.092-4.577 5.4-1.183.153-2.09-.33-3.076-.927-1.036-.627-13.284-8.897-14.413-9.557-1.239-.725-2.215-1.6-1.65-3.302.5-1.503 1.507-2.461.032-3.465-.924-.63-2.502-1.127-2.462-2.706.033-1.33.863-2.326 1.898-2.79 1.114-.498 2.076-.27 3.18.058.152.045.307.091.463.08.27-.018.514-.205.689-.442.35-.476.356-1.427.822-1.764z" fill="#1EDBCF"/>
  <path clip-rule="evenodd" d="M5.729 8.736c-.37.107-.744.63-.18 1.062.884.393 1.375-1.189.413-1.106l-.233.044z" stroke="#fff" stroke-width="1.425" stroke-linecap="round" stroke-linejoin="round"/>
  <path d="M26.388 18.298c-3.41-1.15-5.919 4.596-2.08 5.002m-2.936-3.32c.064.078 3.571 1.691 3.74 1.776M22.154 18.7c.972.51 3.38 1.571 3.727 1.715" stroke="#fff" stroke-linecap="round" stroke-linejoin="round"/>
  <path d="M3.611 13.432c1.135-1.711 3.62-4.088 1.697-4.64" stroke="#C1C5DB" stroke-linecap="round" stroke-linejoin="round"/>
  <path d="M5.162 11.613c-.076 1.735-2.089 3.217-.913 4.816 1.069 1.453 15.547 9.755 17.607 10.957 1.012.59 2.378.958 3.328.138.973-.84 1.766-1.972 2.402-3.092.805-1.416 1.507-2.895 2.317-4.306.524-.912 1.623-3.408.802-4.467-1.022-1.32-11.1-6.462-12.052-7.031-1.665-.998-3.433-1.8-5.056-2.878-.934-.62-2.38-2.223-3.622-1.614-.467.23-.81.662-1.197 1.023-.386.36-.888.669-1.393.56-.341-.073-.619-.324-.92-.51-1.459-.907-3.329-.129-4.09 1.366-.217.428-.415.898-.368 1.382" stroke="#1F2573" stroke-width="1.2" stroke-linecap="round" stroke-linejoin="round"/>
  <path d="M8.175 12.42c-.003.06-.1.07-.004.1.989-.303 1.856-1.359 2.931-1.538 1.562-.26-.472 2.086-.677 2.403-.472.73-.54 1.516.595 1.256.501-.114 1.636-.85 2.092-.342.386.43-.38 1.155-.033 1.548.396.446 1.78-.584 2.205-.726.978-.326.404.523.153 1.074-.52 1.147.62.43 1.179.18 1.317-.59.134.668.449 1.066.24.306.799-.098 1.102.052.306.15.35.605.38.91" stroke="#fff" stroke-linecap="round" stroke-linejoin="round"/>
</svg>
